<svg width="1800" height="1200" viewBox="0 0 1800 1200" xmlns="http://www.w3.org/2000/svg">
  <defs>
    <style>
      .bg { fill: #eef4ea; }
      .block-bg { fill: #6c7f4f; opacity: 0.18; }
      .road { fill: #d8dde3; stroke: #b8c0c8; stroke-width: 2; }
      .road-line { stroke: #ffffff; stroke-width: 4; stroke-dasharray: 18 14; }
      .outline { fill: none; stroke: #44515e; stroke-width: 4; }
      .lot { stroke: #ffffff; stroke-width: 2; cursor: pointer; }
      .status-available { fill: #7ccf8a; }
      .status-reserved { fill: #f2d277; }
      .status-sold { fill: #e78383; }
      .status-blocked { fill: #b8c2cf; }
      .status-highlight { fill: #7fb7ff; }
      .quadra-label { font-family: Arial, Helvetica, sans-serif; font-size: 28px; fill: #213547; font-weight: 700; }
      .road-label { font-family: Arial, Helvetica, sans-serif; font-size: 24px; fill: #485566; font-weight: 700; letter-spacing: 0.5px; }
      .lot-id { font-family: Arial, Helvetica, sans-serif; font-size: 18px; fill: #1b1b1b; font-weight: 700; pointer-events: none; }
      .lot-area { font-family: Arial, Helvetica, sans-serif; font-size: 13px; fill: #1b1b1b; font-weight: 700; pointer-events: none; }
      .title { font-family: Arial, Helvetica, sans-serif; font-size: 34px; fill: #1e293b; font-weight: 700; }
      .subtitle { font-family: Arial, Helvetica, sans-serif; font-size: 18px; fill: #475569; }
      .legend-title { font-family: Arial, Helvetica, sans-serif; font-size: 22px; fill: #1e293b; font-weight: 700; }
      .legend-text { font-family: Arial, Helvetica, sans-serif; font-size: 16px; fill: #334155; }
      .meta-box { fill: #ffffff; stroke: #d7dee6; stroke-width: 2; }
      .green-area { fill: #bde8b8; stroke: #6ba66a; stroke-width: 2; }
      .green-label { font-family: Arial, Helvetica, sans-serif; font-size: 18px; fill: #215732; font-weight: 700; }
      .north { font-family: Arial, Helvetica, sans-serif; font-size: 13px; fill: #334155; font-weight: 700; }
    </style>
  </defs>

  <rect class="bg" x="0" y="0" width="1800" height="1200"/>

  <text x="60" y="64" class="title">LoteMap - Exemplo de Loteamento para Testes</text>
  <text x="60" y="96" class="subtitle">SVG criado do zero para desenvolvimento, com quadras, ruas, IDs e atributos de teste</text>

  <!-- Contorno -->
  <rect x="60" y="130" width="1400" height="980" rx="18" class="outline"/>

  <!-- Ruas principais -->
  <rect x="180" y="280" width="1160" height="110" rx="14" class="road"/>
  <rect x="180" y="570" width="1160" height="110" rx="14" class="road"/>
  <rect x="180" y="860" width="1160" height="110" rx="14" class="road"/>
  <rect x="500" y="150" width="110" height="900" rx="14" class="road"/>
  <rect x="910" y="150" width="110" height="900" rx="14" class="road"/>

  <line x1="220" y1="335" x2="1300" y2="335" class="road-line"/>
  <line x1="220" y1="625" x2="1300" y2="625" class="road-line"/>
  <line x1="220" y1="915" x2="1300" y2="915" class="road-line"/>
  <line x1="555" y1="190" x2="555" y2="1010" class="road-line"/>
  <line x1="965" y1="190" x2="965" y2="1010" class="road-line"/>

  <text x="710" y="345" class="road-label">RUA DAS ARAUCÁRIAS</text>
  <text x="740" y="635" class="road-label">RUA DOS IPÊS</text>
  <text x="720" y="925" class="road-label">RUA DOS JATOBÁS</text>

  <text x="565" y="620" transform="rotate(-90 565 620)" class="road-label">AV. CENTRAL</text>
  <text x="975" y="620" transform="rotate(-90 975 620)" class="road-label">AV. DAS PALMEIRAS</text>

  <!-- Áreas de fundo das quadras -->
  <rect x="180" y="150" width="320" height="130" class="block-bg"/>
  <rect x="610" y="150" width="300" height="130" class="block-bg"/>
  <rect x="1020" y="150" width="320" height="130" class="block-bg"/>

  <rect x="180" y="390" width="320" height="180" class="block-bg"/>
  <rect x="610" y="390" width="300" height="180" class="block-bg"/>
  <rect x="1020" y="390" width="320" height="180" class="block-bg"/>

  <rect x="180" y="680" width="320" height="180" class="block-bg"/>
  <rect x="610" y="680" width="300" height="180" class="block-bg"/>
  <rect x="1020" y="680" width="320" height="180" class="block-bg"/>

  <rect x="180" y="970" width="730" height="140" class="green-area"/>
  <text x="545" y="1045" text-anchor="middle" class="green-label">ÁREA VERDE / EQUIPAMENTO COMUNITÁRIO</text>

  <rect x="1020" y="970" width="320" height="140" class="green-area"/>
  <text x="1180" y="1045" text-anchor="middle" class="green-label">PRAÇA / LAZER</text>

  <!-- QUADRA A -->
  <text x="190" y="180" class="quadra-label">QUADRA A</text>

  <g id="lot-QA-01" data-quadra="A" data-lote="01" data-area="250" data-status="AVAILABLE">
    <rect x="180" y="190" width="80" height="90" class="lot status-available"/>
    <text x="220" y="232" text-anchor="middle" class="lot-id">A-01</text>
    <text x="220" y="252" text-anchor="middle" class="lot-area">250 m²</text>
  </g>
  <g id="lot-QA-02" data-quadra="A" data-lote="02" data-area="250" data-status="AVAILABLE">
    <rect x="260" y="190" width="80" height="90" class="lot status-available"/>
    <text x="300" y="232" text-anchor="middle" class="lot-id">A-02</text>
    <text x="300" y="252" text-anchor="middle" class="lot-area">250 m²</text>
  </g>
  <g id="lot-QA-03" data-quadra="A" data-lote="03" data-area="275" data-status="RESERVED">
    <rect x="340" y="190" width="80" height="90" class="lot status-reserved"/>
    <text x="380" y="232" text-anchor="middle" class="lot-id">A-03</text>
    <text x="380" y="252" text-anchor="middle" class="lot-area">275 m²</text>
  </g>
  <g id="lot-QA-04" data-quadra="A" data-lote="04" data-area="275" data-status="SOLD">
    <rect x="420" y="190" width="80" height="90" class="lot status-sold"/>
    <text x="460" y="232" text-anchor="middle" class="lot-id">A-04</text>
    <text x="460" y="252" text-anchor="middle" class="lot-area">275 m²</text>
  </g>

  <!-- QUADRA B -->
  <text x="620" y="180" class="quadra-label">QUADRA B</text>

  <g id="lot-QB-01" data-quadra="B" data-lote="01" data-area="300" data-status="AVAILABLE">
    <rect x="610" y="190" width="100" height="90" class="lot status-available"/>
    <text x="660" y="232" text-anchor="middle" class="lot-id">B-01</text>
    <text x="660" y="252" text-anchor="middle" class="lot-area">300 m²</text>
  </g>
  <g id="lot-QB-02" data-quadra="B" data-lote="02" data-area="300" data-status="HIGHLIGHT">
    <rect x="710" y="190" width="100" height="90" class="lot status-highlight"/>
    <text x="760" y="232" text-anchor="middle" class="lot-id">B-02</text>
    <text x="760" y="252" text-anchor="middle" class="lot-area">300 m²</text>
  </g>
  <g id="lot-QB-03" data-quadra="B" data-lote="03" data-area="320" data-status="BLOCKED">
    <rect x="810" y="190" width="100" height="90" class="lot status-blocked"/>
    <text x="860" y="232" text-anchor="middle" class="lot-id">B-03</text>
    <text x="860" y="252" text-anchor="middle" class="lot-area">320 m²</text>
  </g>

  <!-- QUADRA C -->
  <text x="1030" y="180" class="quadra-label">QUADRA C</text>

  <g id="lot-QC-01" data-quadra="C" data-lote="01" data-area="260" data-status="AVAILABLE">
    <rect x="1020" y="190" width="80" height="90" class="lot status-available"/>
    <text x="1060" y="232" text-anchor="middle" class="lot-id">C-01</text>
    <text x="1060" y="252" text-anchor="middle" class="lot-area">260 m²</text>
  </g>
  <g id="lot-QC-02" data-quadra="C" data-lote="02" data-area="260" data-status="AVAILABLE">
    <rect x="1100" y="190" width="80" height="90" class="lot status-available"/>
    <text x="1140" y="232" text-anchor="middle" class="lot-id">C-02</text>
    <text x="1140" y="252" text-anchor="middle" class="lot-area">260 m²</text>
  </g>
  <g id="lot-QC-03" data-quadra="C" data-lote="03" data-area="280" data-status="RESERVED">
    <rect x="1180" y="190" width="80" height="90" class="lot status-reserved"/>
    <text x="1220" y="232" text-anchor="middle" class="lot-id">C-03</text>
    <text x="1220" y="252" text-anchor="middle" class="lot-area">280 m²</text>
  </g>
  <g id="lot-QC-04" data-quadra="C" data-lote="04" data-area="280" data-status="SOLD">
    <rect x="1260" y="190" width="80" height="90" class="lot status-sold"/>
    <text x="1300" y="232" text-anchor="middle" class="lot-id">C-04</text>
    <text x="1300" y="252" text-anchor="middle" class="lot-area">280 m²</text>
  </g>

  <!-- QUADRA D -->
  <text x="190" y="420" class="quadra-label">QUADRA D</text>

  <g id="lot-QD-01" data-quadra="D" data-lote="01" data-area="240" data-status="AVAILABLE">
    <rect x="180" y="430" width="80" height="140" class="lot status-available"/>
    <text x="220" y="492" text-anchor="middle" class="lot-id">D-01</text>
    <text x="220" y="512" text-anchor="middle" class="lot-area">240 m²</text>
  </g>
  <g id="lot-QD-02" data-quadra="D" data-lote="02" data-area="240" data-status="AVAILABLE">
    <rect x="260" y="430" width="80" height="140" class="lot status-available"/>
    <text x="300" y="492" text-anchor="middle" class="lot-id">D-02</text>
    <text x="300" y="512" text-anchor="middle" class="lot-area">240 m²</text>
  </g>
  <g id="lot-QD-03" data-quadra="D" data-lote="03" data-area="240" data-status="RESERVED">
    <rect x="340" y="430" width="80" height="140" class="lot status-reserved"/>
    <text x="380" y="492" text-anchor="middle" class="lot-id">D-03</text>
    <text x="380" y="512" text-anchor="middle" class="lot-area">240 m²</text>
  </g>
  <g id="lot-QD-04" data-quadra="D" data-lote="04" data-area="260" data-status="SOLD">
    <rect x="420" y="430" width="80" height="140" class="lot status-sold"/>
    <text x="460" y="492" text-anchor="middle" class="lot-id">D-04</text>
    <text x="460" y="512" text-anchor="middle" class="lot-area">260 m²</text>
  </g>

  <!-- QUADRA E -->
  <text x="620" y="420" class="quadra-label">QUADRA E</text>

  <g id="lot-QE-01" data-quadra="E" data-lote="01" data-area="300" data-status="AVAILABLE">
    <polygon points="610,430 760,430 730,570 610,570" class="lot status-available"/>
    <text x="675" y="492" text-anchor="middle" class="lot-id">E-01</text>
    <text x="675" y="512" text-anchor="middle" class="lot-area">300 m²</text>
  </g>
  <g id="lot-QE-02" data-quadra="E" data-lote="02" data-area="320" data-status="HIGHLIGHT">
    <polygon points="760,430 910,430 910,570 730,570" class="lot status-highlight"/>
    <text x="830" y="492" text-anchor="middle" class="lot-id">E-02</text>
    <text x="830" y="512" text-anchor="middle" class="lot-area">320 m²</text>
  </g>

  <!-- QUADRA F -->
  <text x="1030" y="420" class="quadra-label">QUADRA F</text>

  <g id="lot-QF-01" data-quadra="F" data-lote="01" data-area="250" data-status="AVAILABLE">
    <rect x="1020" y="430" width="80" height="140" class="lot status-available"/>
    <text x="1060" y="492" text-anchor="middle" class="lot-id">F-01</text>
    <text x="1060" y="512" text-anchor="middle" class="lot-area">250 m²</text>
  </g>
  <g id="lot-QF-02" data-quadra="F" data-lote="02" data-area="250" data-status="AVAILABLE">
    <rect x="1100" y="430" width="80" height="140" class="lot status-available"/>
    <text x="1140" y="492" text-anchor="middle" class="lot-id">F-02</text>
    <text x="1140" y="512" text-anchor="middle" class="lot-area">250 m²</text>
  </g>
  <g id="lot-QF-03" data-quadra="F" data-lote="03" data-area="270" data-status="RESERVED">
    <rect x="1180" y="430" width="80" height="140" class="lot status-reserved"/>
    <text x="1220" y="492" text-anchor="middle" class="lot-id">F-03</text>
    <text x="1220" y="512" text-anchor="middle" class="lot-area">270 m²</text>
  </g>
  <g id="lot-QF-04" data-quadra="F" data-lote="04" data-area="270" data-status="BLOCKED">
    <rect x="1260" y="430" width="80" height="140" class="lot status-blocked"/>
    <text x="1300" y="492" text-anchor="middle" class="lot-id">F-04</text>
    <text x="1300" y="512" text-anchor="middle" class="lot-area">270 m²</text>
  </g>

  <!-- QUADRA G -->
  <text x="190" y="710" class="quadra-label">QUADRA G</text>

  <g id="lot-QG-01" data-quadra="G" data-lote="01" data-area="280" data-status="AVAILABLE">
    <rect x="180" y="720" width="80" height="140" class="lot status-available"/>
    <text x="220" y="782" text-anchor="middle" class="lot-id">G-01</text>
    <text x="220" y="802" text-anchor="middle" class="lot-area">280 m²</text>
  </g>
  <g id="lot-QG-02" data-quadra="G" data-lote="02" data-area="280" data-status="AVAILABLE">
    <rect x="260" y="720" width="80" height="140" class="lot status-available"/>
    <text x="300" y="782" text-anchor="middle" class="lot-id">G-02</text>
    <text x="300" y="802" text-anchor="middle" class="lot-area">280 m²</text>
  </g>
  <g id="lot-QG-03" data-quadra="G" data-lote="03" data-area="300" data-status="RESERVED">
    <rect x="340" y="720" width="80" height="140" class="lot status-reserved"/>
    <text x="380" y="782" text-anchor="middle" class="lot-id">G-03</text>
    <text x="380" y="802" text-anchor="middle" class="lot-area">300 m²</text>
  </g>
  <g id="lot-QG-04" data-quadra="G" data-lote="04" data-area="320" data-status="SOLD">
    <rect x="420" y="720" width="80" height="140" class="lot status-sold"/>
    <text x="460" y="782" text-anchor="middle" class="lot-id">G-04</text>
    <text x="460" y="802" text-anchor="middle" class="lot-area">320 m²</text>
  </g>

  <!-- QUADRA H -->
  <text x="620" y="710" class="quadra-label">QUADRA H</text>

  <g id="lot-QH-01" data-quadra="H" data-lote="01" data-area="310" data-status="AVAILABLE">
    <rect x="610" y="720" width="100" height="140" class="lot status-available"/>
    <text x="660" y="782" text-anchor="middle" class="lot-id">H-01</text>
    <text x="660" y="802" text-anchor="middle" class="lot-area">310 m²</text>
  </g>
  <g id="lot-QH-02" data-quadra="H" data-lote="02" data-area="310" data-status="AVAILABLE">
    <rect x="710" y="720" width="100" height="140" class="lot status-available"/>
    <text x="760" y="782" text-anchor="middle" class="lot-id">H-02</text>
    <text x="760" y="802" text-anchor="middle" class="lot-area">310 m²</text>
  </g>
  <g id="lot-QH-03" data-quadra="H" data-lote="03" data-area="330" data-status="HIGHLIGHT">
    <rect x="810" y="720" width="100" height="140" class="lot status-highlight"/>
    <text x="860" y="782" text-anchor="middle" class="lot-id">H-03</text>
    <text x="860" y="802" text-anchor="middle" class="lot-area">330 m²</text>
  </g>

  <!-- QUADRA I -->
  <text x="1030" y="710" class="quadra-label">QUADRA I</text>

  <g id="lot-QI-01" data-quadra="I" data-lote="01" data-area="260" data-status="AVAILABLE">
    <rect x="1020" y="720" width="80" height="140" class="lot status-available"/>
    <text x="1060" y="782" text-anchor="middle" class="lot-id">I-01</text>
    <text x="1060" y="802" text-anchor="middle" class="lot-area">260 m²</text>
  </g>
  <g id="lot-QI-02" data-quadra="I" data-lote="02" data-area="260" data-status="AVAILABLE">
    <rect x="1100" y="720" width="80" height="140" class="lot status-available"/>
    <text x="1140" y="782" text-anchor="middle" class="lot-id">I-02</text>
    <text x="1140" y="802" text-anchor="middle" class="lot-area">260 m²</text>
  </g>
  <g id="lot-QI-03" data-quadra="I" data-lote="03" data-area="280" data-status="RESERVED">
    <rect x="1180" y="720" width="80" height="140" class="lot status-reserved"/>
    <text x="1220" y="782" text-anchor="middle" class="lot-id">I-03</text>
    <text x="1220" y="802" text-anchor="middle" class="lot-area">280 m²</text>
  </g>
  <g id="lot-QI-04" data-quadra="I" data-lote="04" data-area="300" data-status="SOLD">
    <rect x="1260" y="720" width="80" height="140" class="lot status-sold"/>
    <text x="1300" y="782" text-anchor="middle" class="lot-id">I-04</text>
    <text x="1300" y="802" text-anchor="middle" class="lot-area">300 m²</text>
  </g>

  <!-- Legenda -->
  <g>
    <rect x="1490" y="150" width="260" height="360" rx="18" class="meta-box"/>
    <text x="1520" y="190" class="legend-title">LEGENDA</text>

    <rect x="1520" y="220" width="28" height="28" rx="4" class="status-available"/>
    <text x="1560" y="239" class="legend-text">Disponível</text>

    <rect x="1520" y="265" width="28" height="28" rx="4" class="status-reserved"/>
    <text x="1560" y="284" class="legend-text">Reservado</text>

    <rect x="1520" y="310" width="28" height="28" rx="4" class="status-sold"/>
    <text x="1560" y="329" class="legend-text">Vendido</text>

    <rect x="1520" y="355" width="28" height="28" rx="4" class="status-blocked"/>
    <text x="1560" y="374" class="legend-text">Bloqueado</text>

    <rect x="1520" y="400" width="28" height="28" rx="4" class="status-highlight"/>
    <text x="1560" y="419" class="legend-text">Destaque</text>

    <text x="1520" y="465" class="legend-text">ID do grupo: lot-QA-01</text>
    <text x="1520" y="492" class="legend-text">data-quadra, data-lote</text>
  </g>

  <!-- Caixa de exemplo -->
  <g>
    <rect x="1490" y="540" width="260" height="290" rx="18" class="meta-box"/>
    <text x="1520" y="580" class="legend-title">EXEMPLO DE USO</text>
    <text x="1520" y="620" class="legend-text">Ao clicar no lote:</text>
    <text x="1520" y="650" class="legend-text">• buscar dados no banco</text>
    <text x="1520" y="680" class="legend-text">• abrir modal/drawer</text>
    <text x="1520" y="710" class="legend-text">• mostrar valor e status</text>
    <text x="1520" y="740" class="legend-text">• CTA para WhatsApp</text>
    <text x="1520" y="790" class="legend-text">Pronto para testes do MVP</text>
  </g>

  <!-- Rosa dos ventos simples -->
  <g transform="translate(1660,980)">
    <text x="0" y="-38" text-anchor="middle" class="north">N</text>
    <circle cx="0" cy="0" r="26" fill="none" stroke="#64748b" stroke-width="2"/>
    <line x1="0" y1="-34" x2="0" y2="34" stroke="#64748b" stroke-width="2"/>
    <line x1="-34" y1="0" x2="34" y2="0" stroke="#64748b" stroke-width="2"/>
    <line x1="-24" y1="-24" x2="24" y2="24" stroke="#94a3b8" stroke-width="1.5"/>
    <line x1="24" y1="-24" x2="-24" y2="24" stroke="#94a3b8" stroke-width="1.5"/>
  </g>
</svg>
